<?xml version="1.0" encoding="utf-8"?>
<!-- Generator: Adobe Illustrator 16.0.0, SVG Export Plug-In . SVG Version: 6.00 Build 0)  -->
<!DOCTYPE svg PUBLIC "-//W3C//DTD SVG 1.1//EN" "http://www.w3.org/Graphics/SVG/1.1/DTD/svg11.dtd">
<svg version="1.1" id="Ebene_1" xmlns="http://www.w3.org/2000/svg" xmlns:xlink="http://www.w3.org/1999/xlink" x="0px" y="0px"
	 width="595.28px" height="841.89px" viewBox="0 0 595.28 841.89" enable-background="new 0 0 595.28 841.89" xml:space="preserve">
<rect x="165.093" y="225.333" fill="#FFFFFF" width="217.64" height="47.148"/>
<line fill="none" stroke="#010202" stroke-miterlimit="10" x1="165.093" y1="272.482" x2="382.733" y2="272.482"/>
<g>
	<line fill="none" stroke="#010202" stroke-miterlimit="10" x1="242.691" y1="421.702" x2="343.219" y2="272.483"/>
	
		<line fill="none" stroke="#010202" stroke-width="0.5" stroke-miterlimit="10" x1="264.044" y1="422.163" x2="186.821" y2="272.609"/>
	
		<line fill="none" stroke="#010202" stroke-width="0.5" stroke-miterlimit="10" x1="319.422" y1="339.125" x2="186.945" y2="272.425"/>
	
		<line fill="none" stroke="#010202" stroke-width="0.5" stroke-miterlimit="10" x1="165.093" y1="339.786" x2="343.194" y2="272.466"/>
	<g>
		<g>
			
				<line fill="none" stroke="#010202" stroke-width="0.5" stroke-miterlimit="10" x1="254.732" y1="421.7" x2="254.728" y2="420.7"/>
			
				<line fill="none" stroke="#010202" stroke-width="0.5" stroke-miterlimit="10" stroke-dasharray="2.015,2.015" x1="254.719" y1="418.685" x2="254.09" y2="274.616"/>
			
				<line fill="none" stroke="#010202" stroke-width="0.5" stroke-miterlimit="10" x1="254.086" y1="273.609" x2="254.082" y2="272.609"/>
		</g>
	</g>
	<g>
		<g>
			
				<line fill="none" stroke="#010202" stroke-width="0.5" stroke-miterlimit="10" x1="323.428" y1="333.18" x2="322.433" y2="333.08"/>
			
				<line fill="none" stroke="#010202" stroke-width="0.5" stroke-miterlimit="10" stroke-dasharray="1.9891,1.9891" x1="320.454" y1="332.879" x2="167.078" y2="317.373"/>
			
				<line fill="none" stroke="#010202" stroke-width="0.5" stroke-miterlimit="10" x1="166.088" y1="317.273" x2="165.093" y2="317.172"/>
		</g>
	</g>
	
		<line fill="none" stroke="#010202" stroke-width="0.5" stroke-miterlimit="10" x1="186.677" y1="272.298" x2="302.35" y2="364.468"/>
	<circle fill="#FFFFFF" stroke="#010202" stroke-width="0.5" stroke-miterlimit="10" cx="303.675" cy="331.18" r="2.25"/>
	<circle fill="#FFFFFF" stroke="#010202" stroke-width="0.5" stroke-miterlimit="10" cx="343.219" cy="272.482" r="2.251"/>
	<circle fill="#FFFFFF" stroke="#010202" stroke-width="0.5" stroke-miterlimit="10" cx="288.618" cy="353.53" r="2.25"/>
	<circle fill="#FFFFFF" stroke="#010202" stroke-width="0.5" stroke-miterlimit="10" cx="254.653" cy="403.945" r="2.25"/>
	
		<rect x="239.031" y="399.257" transform="matrix(0.5586 -0.8294 0.8294 0.5586 -228.1436 382.7831)" fill="none" width="13.128" height="13.001"/>
	<text transform="matrix(0.5587 -0.8294 0.8294 0.5587 243.603 412.3311)" font-family="'MyriadPro-Regular'" font-size="12">A</text>
	
		<rect x="272.997" y="348.844" transform="matrix(0.5588 -0.8293 0.8293 0.5588 -171.3456 388.6277)" fill="none" width="13.125" height="13"/>
	<text transform="matrix(0.5587 -0.8294 0.8294 0.5587 277.5654 361.916)" font-family="'MyriadPro-Regular'" font-size="12">C</text>
	
		<rect x="295.388" y="315.608" transform="matrix(0.5588 -0.8293 0.8293 0.5588 -133.8999 392.5419)" fill="none" width="13.125" height="12.997"/>
	<text transform="matrix(0.5587 -0.8294 0.8294 0.5587 303.6592 323.1836)" font-family="'MyriadPro-Regular'" font-size="12">B</text>
	
		<rect x="334.932" y="256.908" transform="matrix(0.5587 -0.8294 0.8294 0.5587 -67.7645 399.4546)" fill="none" width="13.128" height="13"/>
	<text transform="matrix(0.5587 -0.8294 0.8294 0.5587 342.373 265.7222)" font-family="'MyriadPro-Regular'" font-size="12">D</text>
	
		<rect x="334.055" y="281.656" transform="matrix(0.5589 -0.8292 0.8292 0.5589 -88.7064 409.5417)" fill="none" width="13.128" height="12.998"/>
	<text transform="matrix(0.5587 -0.8294 0.8294 0.5587 337.4492 293.936)" font-family="'MyriadPro-Regular'" font-size="10">g</text>
</g>
</svg>
