<?xml version="1.0" encoding="utf-8"?>
<!-- Generator: Adobe Illustrator 16.0.0, SVG Export Plug-In . SVG Version: 6.00 Build 0)  -->
<!DOCTYPE svg PUBLIC "-//W3C//DTD SVG 1.1//EN" "http://www.w3.org/Graphics/SVG/1.1/DTD/svg11.dtd">
<svg version="1.1" id="Ebene_1" xmlns="http://www.w3.org/2000/svg" xmlns:xlink="http://www.w3.org/1999/xlink" x="0px" y="0px"
	 width="595.28px" height="841.89px" viewBox="0 0 595.28 841.89" enable-background="new 0 0 595.28 841.89" xml:space="preserve">
<g opacity="0.2">
	
		<line fill="none" stroke="#010202" stroke-width="0.5" stroke-miterlimit="10" x1="201.314" y1="489.242" x2="292.922" y2="322.075"/>
	
		<line fill="none" stroke="#010202" stroke-width="0.5" stroke-miterlimit="10" x1="300.867" y1="489.242" x2="279.621" y2="322.075"/>
	
		<line fill="none" stroke="#010202" stroke-width="0.5" stroke-miterlimit="10" x1="188.015" y1="343.136" x2="394.166" y2="489.242"/>
	<g>
		<g>
			
				<line fill="none" stroke="#010202" stroke-width="0.5" stroke-miterlimit="10" x1="187.461" y1="487.697" x2="188.287" y2="487.135"/>
			
				<line fill="none" stroke="#010202" stroke-width="0.5" stroke-miterlimit="10" stroke-dasharray="1.9939,1.9939" x1="189.936" y1="486.014" x2="403.449" y2="340.815"/>
			
				<line fill="none" stroke="#010202" stroke-width="0.5" stroke-miterlimit="10" x1="404.273" y1="340.255" x2="405.101" y2="339.692"/>
		</g>
	</g>
	<g>
		<g>
			
				<line fill="none" stroke="#010202" stroke-width="0.5" stroke-miterlimit="10" x1="308.036" y1="489.242" x2="307.563" y2="488.361"/>
			
				<line fill="none" stroke="#010202" stroke-width="0.5" stroke-miterlimit="10" stroke-dasharray="2.018,2.018" x1="306.61" y1="486.582" x2="219.373" y2="323.846"/>
			
				<line fill="none" stroke="#010202" stroke-width="0.5" stroke-miterlimit="10" x1="218.896" y1="322.957" x2="218.424" y2="322.075"/>
		</g>
	</g>
	
		<line fill="none" stroke="#010202" stroke-width="0.5" stroke-miterlimit="10" x1="283.704" y1="322.075" x2="270.312" y2="489.242"/>
</g>
<g>
	<line fill="none" stroke="#010202" stroke-miterlimit="10" x1="187.47" y1="471.743" x2="405.109" y2="471.743"/>
	<rect x="197.803" y="458.743" fill="none" width="13.127" height="13"/>
	<text transform="matrix(1 0 0 1 197.8032 467.2637)" font-family="'MyriadPro-Regular'" font-size="12">A</text>
	<rect x="258.592" y="458.743" fill="none" width="13.127" height="13"/>
	<text transform="matrix(1 0 0 1 258.5918 467.2637)" font-family="'MyriadPro-Regular'" font-size="12">C</text>
	<rect x="298.667" y="458.743" fill="none" width="13.127" height="13"/>
	<text transform="matrix(1 0 0 1 305.291 467.2637)" font-family="'MyriadPro-Regular'" font-size="12">B</text>
	<rect x="369.443" y="458.743" fill="none" width="13.127" height="13"/>
	<text transform="matrix(1 0 0 1 374.5791 467.2637)" font-family="'MyriadPro-Regular'" font-size="12">D</text>
	<rect x="391.982" y="471.744" fill="none" width="13.127" height="13"/>
	<text transform="matrix(1 0 0 1 391.9824 478.8438)" font-family="'MyriadPro-Regular'" font-size="10">g</text>
	
		<line fill="none" stroke="#010202" stroke-width="0.5" stroke-miterlimit="10" x1="252.74" y1="322.075" x2="197.803" y2="518.734"/>
	
		<line fill="none" stroke="#010202" stroke-width="0.5" stroke-miterlimit="10" x1="332.295" y1="458.376" x2="188.024" y2="515.725"/>
	
		<line fill="none" stroke="#010202" stroke-width="0.5" stroke-miterlimit="10" x1="369.441" y1="471.714" x2="188.2" y2="405.718"/>
	<g>
		<g>
			
				<line fill="none" stroke="#010202" stroke-width="0.5" stroke-miterlimit="10" x1="364.316" y1="518.734" x2="363.502" y2="518.152"/>
			
				<line fill="none" stroke="#010202" stroke-width="0.5" stroke-miterlimit="10" stroke-dasharray="2.0077,2.0077" x1="361.871" y1="516.984" x2="189.653" y2="393.667"/>
			
				<line fill="none" stroke="#010202" stroke-width="0.5" stroke-miterlimit="10" x1="188.837" y1="393.082" x2="188.024" y2="392.5"/>
		</g>
	</g>
	<g>
		<g>
			
				<line fill="none" stroke="#010202" stroke-width="0.5" stroke-miterlimit="10" x1="187.47" y1="474.345" x2="188.464" y2="474.235"/>
			
				<line fill="none" stroke="#010202" stroke-width="0.5" stroke-miterlimit="10" stroke-dasharray="1.9905,1.9905" x1="190.442" y1="474.018" x2="403.127" y2="450.566"/>
			
				<line fill="none" stroke="#010202" stroke-width="0.5" stroke-miterlimit="10" x1="404.115" y1="450.457" x2="405.109" y2="450.348"/>
		</g>
	</g>
	
		<line fill="none" stroke="#010202" stroke-width="0.5" stroke-miterlimit="10" x1="404.564" y1="399.059" x2="187.47" y2="517.814"/>
	<circle fill="#FFFFFF" stroke="#010202" stroke-width="0.5" stroke-miterlimit="10" cx="298.667" cy="471.743" r="2.25"/>
	<circle fill="#FFFFFF" stroke="#010202" stroke-width="0.5" stroke-miterlimit="10" cx="369.444" cy="471.743" r="2.251"/>
	<circle fill="#FFFFFF" stroke="#010202" stroke-width="0.5" stroke-miterlimit="10" cx="271.719" cy="471.743" r="2.25"/>
	<circle fill="#FFFFFF" stroke="#010202" stroke-width="0.5" stroke-miterlimit="10" cx="210.93" cy="471.743" r="2.25"/>
</g>
</svg>
