<?xml version="1.0" encoding="utf-8"?>
<!-- Generator: Adobe Illustrator 16.0.0, SVG Export Plug-In . SVG Version: 6.00 Build 0)  -->
<!DOCTYPE svg PUBLIC "-//W3C//DTD SVG 1.1//EN" "http://www.w3.org/Graphics/SVG/1.1/DTD/svg11.dtd">
<svg version="1.1" id="Ebene_1" xmlns="http://www.w3.org/2000/svg" xmlns:xlink="http://www.w3.org/1999/xlink" x="0px" y="0px"
	 width="595.28px" height="841.89px" viewBox="0 0 595.28 841.89" enable-background="new 0 0 595.28 841.89" xml:space="preserve">
<line fill="none" stroke="#010202" stroke-miterlimit="10" x1="221.636" y1="465.353" x2="368.972" y2="465.353"/>
<line fill="none" stroke="#010202" stroke-width="0.5" stroke-miterlimit="10" x1="231.015" y1="477.199" x2="293.03" y2="364.031"/>
<line fill="none" stroke="#010202" stroke-width="0.5" stroke-miterlimit="10" x1="298.409" y1="477.199" x2="284.026" y2="364.031"/>
<line fill="none" stroke="#010202" stroke-width="0.5" stroke-miterlimit="10" x1="222.011" y1="378.289" x2="361.569" y2="477.199"/>
<circle fill="#FFFFFF" stroke="#010202" stroke-width="0.5" stroke-miterlimit="10" cx="296.913" cy="465.353" r="1.523"/>
<circle fill="#FFFFFF" stroke="#010202" stroke-width="0.5" stroke-miterlimit="10" cx="344.827" cy="465.353" r="1.523"/>
<circle fill="#FFFFFF" stroke="#010202" stroke-width="0.5" stroke-miterlimit="10" cx="237.517" cy="465.353" r="1.523"/>
<rect x="228.631" y="456.552" fill="none" width="8.886" height="8.801"/>
<text transform="matrix(1 0 0 1 228.6313 462.3203)" font-family="'MyriadPro-Regular'" font-size="8.1237">A</text>
<rect x="296.913" y="456.552" fill="none" width="8.887" height="8.801"/>
<text transform="matrix(1 0 0 1 301.3965 462.3203)" font-family="'MyriadPro-Regular'" font-size="8.1237">B</text>
<rect x="344.827" y="456.552" fill="none" width="8.887" height="8.801"/>
<text transform="matrix(1 0 0 1 348.3037 462.3203)" font-family="'MyriadPro-Regular'" font-size="8.1237">D</text>
<rect x="360.085" y="465.353" fill="none" width="8.887" height="8.8"/>
<text transform="matrix(1 0 0 1 360.0859 470.1602)" font-family="'MyriadPro-Regular'" font-size="6.7697">g</text>
</svg>
