<?xml version="1.0" encoding="utf-8"?>
<!-- Generator: Adobe Illustrator 16.0.0, SVG Export Plug-In . SVG Version: 6.00 Build 0)  -->
<!DOCTYPE svg PUBLIC "-//W3C//DTD SVG 1.1//EN" "http://www.w3.org/Graphics/SVG/1.1/DTD/svg11.dtd">
<svg version="1.1" id="Ebene_1" xmlns="http://www.w3.org/2000/svg" xmlns:xlink="http://www.w3.org/1999/xlink" x="0px" y="0px"
	 width="595.28px" height="841.89px" viewBox="0 0 595.28 841.89" enable-background="new 0 0 595.28 841.89" xml:space="preserve">
<line fill="none" stroke="#010202" stroke-miterlimit="10" x1="222.309" y1="465.353" x2="369.645" y2="465.353"/>
<line fill="none" stroke="#010202" stroke-width="0.5" stroke-miterlimit="10" x1="231.688" y1="477.199" x2="293.703" y2="364.031"/>
<line fill="none" stroke="#010202" stroke-width="0.5" stroke-miterlimit="10" x1="299.082" y1="477.199" x2="284.699" y2="364.031"/>
<line fill="none" stroke="#010202" stroke-width="0.5" stroke-miterlimit="10" x1="222.684" y1="378.289" x2="362.242" y2="477.199"/>
<g>
	<g>
		
			<line fill="none" stroke="#010202" stroke-width="0.5" stroke-miterlimit="10" x1="222.309" y1="476.152" x2="223.135" y2="475.59"/>
		
			<line fill="none" stroke="#010202" stroke-width="0.5" stroke-miterlimit="10" stroke-dasharray="1.9795,1.9795" x1="224.771" y1="474.477" x2="367.998" y2="377.077"/>
		
			<line fill="none" stroke="#010202" stroke-width="0.5" stroke-miterlimit="10" x1="368.816" y1="376.521" x2="369.645" y2="375.958"/>
	</g>
</g>
<g>
	<g>
		
			<line fill="none" stroke="#010202" stroke-width="0.5" stroke-miterlimit="10" x1="303.934" y1="477.199" x2="303.461" y2="476.318"/>
		
			<line fill="none" stroke="#010202" stroke-width="0.5" stroke-miterlimit="10" stroke-dasharray="2.0064,2.0064" x1="302.514" y1="474.55" x2="244.215" y2="365.797"/>
		
			<line fill="none" stroke="#010202" stroke-width="0.5" stroke-miterlimit="10" x1="243.742" y1="364.912" x2="243.27" y2="364.031"/>
	</g>
</g>
<line fill="none" stroke="#010202" stroke-width="0.5" stroke-miterlimit="10" x1="287.463" y1="364.031" x2="278.396" y2="477.199"/>
<circle fill="#FFFFFF" stroke="#010202" stroke-width="0.5" stroke-miterlimit="10" cx="297.586" cy="465.353" r="1.523"/>
<circle fill="#FFFFFF" stroke="#010202" stroke-width="0.5" stroke-miterlimit="10" cx="345.5" cy="465.353" r="1.523"/>
<circle fill="#FFFFFF" stroke="#010202" stroke-width="0.5" stroke-miterlimit="10" cx="279.342" cy="465.353" r="1.523"/>
<circle fill="#FFFFFF" stroke="#010202" stroke-width="0.5" stroke-miterlimit="10" cx="238.19" cy="465.353" r="1.523"/>
<rect x="229.304" y="456.552" fill="none" width="8.886" height="8.801"/>
<text transform="matrix(1 0 0 1 229.3042 462.3203)" font-family="'MyriadPro-Regular'" font-size="8.1237">A</text>
<rect x="270.455" y="456.552" fill="none" width="8.887" height="8.801"/>
<text transform="matrix(1 0 0 1 270.457 462.3203)" font-family="'MyriadPro-Regular'" font-size="8.1237">C</text>
<rect x="297.586" y="456.552" fill="none" width="8.887" height="8.801"/>
<text transform="matrix(1 0 0 1 302.0703 462.3203)" font-family="'MyriadPro-Regular'" font-size="8.1237">B</text>
<rect x="345.5" y="456.552" fill="none" width="8.887" height="8.801"/>
<text transform="matrix(1 0 0 1 348.9766 462.3203)" font-family="'MyriadPro-Regular'" font-size="8.1237">D</text>
<rect x="360.758" y="465.353" fill="none" width="8.887" height="8.8"/>
<text transform="matrix(1 0 0 1 360.7588 470.1602)" font-family="'MyriadPro-Regular'" font-size="6.7697">g</text>
</svg>
