<?xml version="1.0" encoding="utf-8"?>
<!-- Generator: Adobe Illustrator 16.0.0, SVG Export Plug-In . SVG Version: 6.00 Build 0)  -->
<!DOCTYPE svg PUBLIC "-//W3C//DTD SVG 1.1//EN" "http://www.w3.org/Graphics/SVG/1.1/DTD/svg11.dtd">
<svg version="1.1" id="Ebene_1" xmlns="http://www.w3.org/2000/svg" xmlns:xlink="http://www.w3.org/1999/xlink" x="0px" y="0px"
	 width="595.28px" height="841.89px" viewBox="0 0 595.28 841.89" enable-background="new 0 0 595.28 841.89" xml:space="preserve">
<line fill="none" stroke="#010202" stroke-miterlimit="10" x1="221.972" y1="465.353" x2="369.308" y2="465.353"/>
<line fill="none" stroke="#010202" stroke-width="0.5" stroke-miterlimit="10" x1="231.351" y1="477.199" x2="293.367" y2="364.031"/>
<line fill="none" stroke="#010202" stroke-width="0.5" stroke-miterlimit="10" x1="298.745" y1="477.199" x2="284.362" y2="364.031"/>
<line fill="none" stroke="#010202" stroke-width="0.5" stroke-miterlimit="10" x1="222.347" y1="378.289" x2="361.905" y2="477.199"/>
<g>
	<g>
		
			<line fill="none" stroke="#010202" stroke-width="0.5" stroke-miterlimit="10" x1="221.972" y1="476.152" x2="222.799" y2="475.59"/>
		
			<line fill="none" stroke="#010202" stroke-width="0.5" stroke-miterlimit="10" stroke-dasharray="1.9795,1.9795" x1="224.436" y1="474.477" x2="367.662" y2="377.077"/>
		
			<line fill="none" stroke="#010202" stroke-width="0.5" stroke-miterlimit="10" x1="368.48" y1="376.521" x2="369.308" y2="375.958"/>
	</g>
</g>
<g>
	<g>
		
			<line fill="none" stroke="#010202" stroke-width="0.5" stroke-miterlimit="10" x1="303.598" y1="477.199" x2="303.125" y2="476.318"/>
		
			<line fill="none" stroke="#010202" stroke-width="0.5" stroke-miterlimit="10" stroke-dasharray="2.0064,2.0064" x1="302.178" y1="474.55" x2="243.879" y2="365.797"/>
		
			<line fill="none" stroke="#010202" stroke-width="0.5" stroke-miterlimit="10" x1="243.405" y1="364.912" x2="242.933" y2="364.031"/>
	</g>
</g>
<circle fill="#FFFFFF" stroke="#010202" stroke-width="0.5" stroke-miterlimit="10" cx="297.25" cy="465.353" r="1.524"/>
<circle fill="#FFFFFF" stroke="#010202" stroke-width="0.5" stroke-miterlimit="10" cx="345.163" cy="465.353" r="1.523"/>
<circle fill="#FFFFFF" stroke="#010202" stroke-width="0.5" stroke-miterlimit="10" cx="237.854" cy="465.353" r="1.523"/>
<rect x="228.967" y="456.552" fill="none" width="8.886" height="8.801"/>
<text transform="matrix(1 0 0 1 228.9678 462.3203)" font-family="'MyriadPro-Regular'" font-size="8.1237">A</text>
<rect x="297.25" y="456.552" fill="none" width="8.887" height="8.801"/>
<text transform="matrix(1 0 0 1 301.7334 462.3203)" font-family="'MyriadPro-Regular'" font-size="8.1237">B</text>
<rect x="345.163" y="456.552" fill="none" width="8.887" height="8.801"/>
<text transform="matrix(1 0 0 1 348.6396 462.3203)" font-family="'MyriadPro-Regular'" font-size="8.1237">D</text>
<rect x="360.422" y="465.353" fill="none" width="8.887" height="8.8"/>
<text transform="matrix(1 0 0 1 360.4219 470.1602)" font-family="'MyriadPro-Regular'" font-size="6.7697">g</text>
</svg>
